<mxfile host="65bd71144e">
    <diagram id="r1kbrJ5Z5qtUVHdDvoHk" name="Page-1">
        <mxGraphModel dx="1107" dy="705" grid="0" gridSize="10" guides="1" tooltips="1" connect="1" arrows="1" fold="1" page="1" pageScale="1" pageWidth="1100" pageHeight="1700" background="#ffffff" math="0" shadow="0">
            <root>
                <mxCell id="0"/>
                <mxCell id="1" parent="0"/>
                <mxCell id="31" value="" style="rounded=0;whiteSpace=wrap;html=1;fontFamily=Georgia;fontColor=#000000;strokeColor=#000000;fillColor=none;" parent="1" vertex="1">
                    <mxGeometry x="473" y="352" width="368" height="135" as="geometry"/>
                </mxCell>
                <mxCell id="28" value="" style="whiteSpace=wrap;html=1;aspect=fixed;fontFamily=Georgia;fontColor=#000000;fillColor=none;strokeColor=#000000;" parent="1" vertex="1">
                    <mxGeometry x="473" y="82.25" width="156" height="156" as="geometry"/>
                </mxCell>
                <mxCell id="14" value="" style="sketch=0;aspect=fixed;html=1;points=[];align=center;image;fontSize=12;image=img/lib/mscae/Azure_Pipelines.svg;rounded=1;shadow=0;fontFamily=Courier New;fontColor=#000000;strokeColor=#B3B3B3;strokeWidth=3;fillColor=#B3B3B3;" parent="1" vertex="1">
                    <mxGeometry x="523" y="375" width="55" height="55" as="geometry"/>
                </mxCell>
                <mxCell id="16" value="" style="dashed=0;outlineConnect=0;html=1;align=center;labelPosition=center;verticalLabelPosition=bottom;verticalAlign=top;shape=mxgraph.weblogos.github;rounded=1;shadow=0;fontFamily=Courier New;fontColor=#000000;strokeColor=#B3B3B3;strokeWidth=3;fillColor=#B3B3B3;" parent="1" vertex="1">
                    <mxGeometry x="290" y="238.25" width="75" height="75" as="geometry"/>
                </mxCell>
                <mxCell id="17" value="" style="shape=image;verticalLabelPosition=bottom;labelBackgroundColor=#ffffff;verticalAlign=top;aspect=fixed;imageAspect=0;image=data:image/png,iVBORw0KGgoAAAANSUhEUgAAAMgAAADICAYAAACtWK6eAAAnO0lEQVR4nOyde2wb173nj1yie/4QuqPCuBnsFST21N24aMqk67QxYHl52ExSp3WbtLERX5tFlNuUcXtTOMXm2srednmIJltVm6DOxt04vO7GQug0XicbZ6+zVeoJeLjSRR3UQl3GbVysMyW1vthJ63s1CYSLg65QLUY8tGWFnHNmOEMOqfkAgRFxHoff4W/O6/eIgQ4DUbIfInwjAOAmRSMbAQBx/l8//3c1lwEAFgDgEgDgoqWTiwCA8wCANyw9d7kDXyGih+nrxE0VLbsFIrwNIqwBAG4GAPhlqBUAALV0MsUM+iozSgs+XTdijdI2A1G07CaIcBoivAMAMNiGWzIAwJSlkwIz6CvMKC224Z4RPUagBgJRMgYRvkfRyEO8p+gUJjPoYUsnzzCjZHawHRFdRiAGYhuGopE9EOHvAAA2BHEPjzBuKD+IDCVCBt8NRNGyn1M0chAAsNHva/uIxQz6uKWTJ5hRYp1uTER48c1AIEqqaoY+BQDY4dc128AFSyd7LT1X6nRDIsLJB/y4iJop3q1o5GcAgH/jx/XayHqI8ChEeP3ifKW4OF+NJvIR19BSDwJREioa+SFEeK9P7bHstzp/s1f4nsfKpdoYAGBQ0YjK90hu8HFF7JyZxzuYUXrbp+tF9ACeDYQPqf6uxdUp+8d/ytLJFN/ou+D2AoqWXQ8A2AIR1iDC21pcFLDnJrvMfOq1Fq4R0UN4MhCIkterGap7fHvbw5iTfH/iNb8nyYqWvZHvt4zaQygv7WMGfdDMp57xs10R3YlrA1EzRfttfdLDj295iZUZ9AlLz11ye1+38OHfHojwmJdehRn0ITOfejKY1kV0C64MhBvHFPeTkmWR7z081om9B74ncy9E+FH7K7g5NzKSCGkD4cOqGZc9xxlLJ/dbeu7X3prnHxAlFUUj34MIP+jmvMhI1jZSy7x8Qj7j4g1s9xr//vKJ0a8vzE6+01oT/WFxvsoWZid/CgCg3EnyQzLnxQbi2yDC5xdmJ98KvpURYUNoIPZYXs3Q0y52xk1LJ7dfPnHf8cX56p9ab6K/MKNUZQZ9rn/TaEJ2bhIbiH8eAPA/mVEKhbFHtA+hgazfefSp2ED8S5LXO2fm8daF2cnftt604Ficr/4zM+jx2ED8w7GB+GckTvkgRHgbM+ik3RO1oYkRIcFxDqJmindDhF+UvNaMmcd3dFsMhpop/juI8OOSh79YGevbGXCTIkLEumYfQJQchAgfkbxOVxqHjZlPPWFPxCUP36FminsCblJEiGg6xBo8UPmxpG+VPay6tRuNo87C7OQbEGEYG4iPiI6NDcT/LTPos/YwrT2ti+gkDYdY3GV9SuJ808zjT7nd34AoqSoa+RpEeDuf/Cv2tfiy8Iv2/KATEYDx8aWfAAB2SRx6pDLW9/U2NCmiw7yvB4EoGVu/8+j/kNjvWLR0crvbCbmaKe5TNHIyNhDfxl1VIP+o3zYWiPBX+jeN7gYA/IYZpd+5+jYtwgz6Wv+m0S8BAP5McKjds56MVrV6n/fNQRSN7JFZ0mUG/Y6l595wczM1U/whRPigxE78BkUjenx86VmIkl78qTxhDxMtnezi8eyOKBqRndhHdDHX9CDcLeO/AQA+LDjvzOUTo193s8/BV4v+g8v23dS/afQvIcK/X5id/JXLcz3BjNIfIMIsNhC/XXAoAgBMMaP0D+1oV0RnuKYHgQjfI7F5Zg+t7nczR7DnHNwXygvrIcJH4+NLRUXLtiW+3dLJkzzXliOKRsba0Z6IznFND6Jm6H8FAPwrpxOYQf/L5RP3Tbq5yfqdRw/EBuKf9dpIThwinIEIg8X5ys+D3KXn1/4Nd5l3wjbY55hRsoJqS0RnudKDKFp2k0TwE7N08pjbm/DVKj+Adk+kZuibipa9xadrNoTHqZ8SHBaDCD8QZDsiOssVA4EIp0UH1+I5PLms3+DhHCc2Kho5o2aKT0OUVHy+9hUsnRDRMTK6RXQvKw1ElI1kkRn0CY/3EaUWPcsjDV0BEd6rZuhbaqZ4t8d2OWLpuVkAwIzgsEFFy24J4v4RnWfZQPgDFoXPngwqEtDSySFLJ/bw7oyH01WI8Ivx8aW/gyjZKNl1y20THSPxconoUpYNhCc7cMTSSSHIhlh67ldmHm/lflFe3Fa223MTNVPcB1HSt6z1zKCviNrj4xwrImTUDUQTHLfADBp4pg9mlBbNfOpJM48/bvdYHi7RDxE+qGboz/migx9tYhJt2aBoWd97r4jOsw6iZL/E6tWpdqboZEbpUmWs78vMoDt4HRC33Mwn8f+Jf7+WsHQiY6zRPKQHWceL1zgOSXjeqrZj5lMvmXn8SWbQQx4m8TGI8MN82PWFVtrBDPq66BiIcCez10cEhD3EukniOFc+V37CjJJl5lPfsnQyIrO73YA4RPhUfHzpBERJV1lNVrYBAHDO6RiIsIyOEV3GOl72zAnLS8ZDv7H03Bs113o6JuNM2IAdvDfxOhQ6K/g8zNnsIzyyrkkdwJV03Djq8En8D/gkXvdwifUQ4SlFy37C7YmWTkS9l+rHfCciXHSVgdRhRqlSGeu7jRk0zRNcu6Ff0chRD0vBF0UHQIQ9DeEiwss6UWwGz7IeSsx86piZxx8DABx1eerNEOE7XZ5TlTimHbUXI9qITA8S6tLK9gS6MtZ3n6UT7Ka3UzQiE1q7EpnNy3/h8poRIadpVpMVdEUyBkvPlfgk/lHJJWFhgoaVMIPK7MdEQ6weQ8ZAugZmlJiZT33X0skNEkvCLhNZR2Wk1yI9ZSCgFr3YzwOdRMuu0Q8+QojMSo5vjn9Bo2aKX4AIH5KYVwG3q3OKlpXpcbpiOBohT4xPwp0yh4R+ZQai5CCvsHuX7DnMoG73UWT2OP7R5TUjQs46XjizKbxgZiiBKBlTM8V9aoa+5cY4ePCXbFrVOjIviig2vceIcW9Zp2whoXTjVrTsLYq2HMzk2kmwVvHKdVGfj0ocE3hpuYj2EuM7xNjhGL/jyVtiRaWovR7nRzOWTv7a/X2xaNK/YOm5UO8ZRbhnnaUTkQvFIC+13HHUTPEeezjFy6h5MY4jPAu9a2dHCW9doStKRPcRk3Qh3wIAeKUN7WkIRMm4mqFPAwCEocFNuGjpZK+l54RxHU3ub+u0WXCYF1f8iJCzTibWQyIkNxD4JPxv+CTci3EwZtBHzTz+pFfjqLUD3yLhsyZyh4/oQtbxcbOjQ6JMUge/UbTsFjVD3+QpS6GHS1BLJzeZ+dR3Ww0Xlvz+pVbuERFO6jvpoj2BDYqWvbEN7bF7jfXx8aVnFY3MeAxCuswMmq6M9aUsPedLrUSIsMix0bL0nGPEYUR3smwglk6Em2btyCCoZor38uGUKCduM+xJ+MfMfOqYX23iKU5FSbM7ErMfETzLBsIM+qoojBUiPApR0stQRwhEeGN8fGkaInxUonBPI85bOhmpjPV93e9E0opG9oqOsXQiyuEb0aVwA1muLyh6C67nxXV8ByI85tb9nGNPwsfMPP6Upef+3v92LSd5EA2vGE8uF9GDXPHmlcmcaP+QPWYtDGKHecrM44+b+dQPgnJFVzRyQGKB4GQ3FzCNcOaKgfC3oChz+wZFI/d6uA/1cE4zLjGD7qiM9d3BjFJg4cC86I/M8MqtT1dEF3GlgM7ifPVPEOH+2EDcye0ExAbin2EG/fHifNXN0uk/+zDJX2QG/c+XT4zeY+m5X7Z4LSGDBypPSfh5nTfzKdduKxHdwzUBU5ZOnpHIOaUqGvmem5tYeu41j2l66py1dLLZzKe+3Y5qToqWTcqspDGDRoU8e5xrSrAtzlcXIMLrYwNxR7cKuxexh03MKMlk+liGGfR0/6bRtGRcRR3LnoRfPjH6wMLsZFuKZUKU7F+/8+jPeO12Jy7a7QqyFFxE5+lb/Qd77M33IkQ/kEu1JAklaQ9W7lP1smS60xfNPLZ7jLa6kMfHl56V7D1GzXzKVa3GiO7jA6v/wHuRmETRzQ/1bxpNMIMel32LLs5X7R7hx7GB+D/FBuI32NdocNiMpZOMmU99f3G++p70N/EBNVP8WmwgLlOq+uylH3zkr9rQpIgO874eBNTe9FDN0F/KuHowgx4y86lvebm5omXtnuR6vpRq90Szlp7zUgOxZdRMMQkR1mXc6O35kKXnOpbQO6J9NDQQwCeqikaklmeZQR828ymv9Qs7jqJlN/HvKpwftfJCiOg+3jfEqmNPwPmE/TOii8QG4rdDhK2F2cmue6ty4zgFAPiwxOH2xHzn4nz1j21oWkQIaGogYHnOUCn2bxrdLpNkLTYQ3wYRhguzk57jLtqNPazq3zT6M0njWLR0sm1hdlJ65S6i+2k6xKoDUfKjaoaelVjVqvOCmcdfD7v7hT0hhwgflg3dZQZ90MynfhR8yyLChGMPAmorT/MQ4XOxgfguyUyMN/RvGv0SAOB/MaP0B3+a6R8QJfsHD1Se4atVUpklmUGPmPnUd4NvXUTYEBqIzcLs5NsQ4d/HBuKy5Y7/DCL8lxBhtjhf+UVYNtMULZvkm4CO7jSrmLp8YnRPWL5DRHuRMhBQM5JZeyJuzzUkT4nZk/f+TaNfAQD8xs2uu99AlFQHD1SegggfdDFUtJkx8/jOdlb4jQgXwjnIamqF+pd/aG45aenkUUvPzXo41xO2YSgaOcC9ct0Ge83wFEGhnktFBItrAwGtGQngO+WHmEFfCerNzLMu7uXBTl6iIKfMPN4ZGUeEJwMBNSO5m4fIei1cucB7lZPMoK+34qULUTIGEb4FIryNJ1gQxZA3xZ6QWzr5RlQPJAK0YiCg9qa+UdHISZ/y957jbu3neZZCe86ywAx6qf5j5SUI+nki6Y9ChDfyjIebWzDUOovMoA9FS7kRK2nJQADPlatm6N8CAHb406SOcNHSya4g5kfcqLdAhDfz/L4beGKK1ckpLvGIzovMoOeZQc8wg76xloZ5YdSqZQOpo2aKe/i8JBR5fGVhBj1k6eQRP8VVtKzds9l63NVi8m/G52wvMIO+1I5gsXYTdq18MxDAk76pGfp9AMD9fl43IOzh3IN+euUqWvZORSMPe8zQIsL+ARQsnRz0ULohdHSLVr4aSB0+N3kcANCRnL4CLtby9foX7KRo2c8pGhmXDATzA/vh5yw913UZ5btNq0AMpA5fbh0DAGwPQa1De6z6uKWTY36tUPHSb0/z79dulhNzWzoJLO2Rn3SrVoEaSB1Fy8Yhwg/wzCbtrHnI+FLykVayuzdCzRTv4c6Obnbmg+Ccmcc7mFF6u8PtaEo3a9UWA1mJomW3QIR3QIS3t7Jf4YA9OZuydHKKb0b6urIBUTKmaOSHvIhPWFhgBt1l5lOvdrohK+kFrdpuICuxexYAwBY+WfMyJl3geybneX2OUpBZ1iFK9qsZeqKFQj5BssgjO5/sdENAD2nVUQOpI5NJhBmUMIOe56WW7V7iUjtrAvIH/tMWV11s471g6eTCqpos/RDhQb72v1kmQK0ZfLOzo0bSS1p1jYHwEmrPtK9VV6lVuqKnXbrJ29gTQt3SSYEZ9DXZFEl8b+BuPmdzXSOlk0bSa1p1jYHYk+3KWN+X29Ska4iPLz0HAHCTOnWRLy8+1upSrKJlb1U08h2XPzh7CHFXJ+YkvaaVVERdSNgGUbLtqyBqprjP5QOnlk5uqIz13efHPoWl516vjPWl7Imliyz5MYjwCxAlZWq7+0YvatVNBgI9Zpb3jKJlb4QIy+bfXXZ29LP020rMfOq4mcefAgDIFuux5wEveixX4Zpe1aqbDKRenySQKlfvv9fyEuVRyQ3OBWZQLehxvz0ur4z1fZEZ9FHJU25SNPI3QbYJ9LhWXWUgPLN8W1J+Khp5QHLp2bJ0MmLmU22rclur3EsfkjnWfqkoWjaI/aYr9LJW3WYg9pf4DkTJQHfj7bkOLz8tgjGDbrf03K+CbE8j7Dew5NsRui1X4YZe16rrDMR+YakZ+myQY2tFI/tk3CKYQfea+ZTvtRFl4amIZMbZuxQt+4kg2tDrWnWjgdhoikayQVzYnuPIlF4DABTCUP7AzOP7ZFZsFI1IDTPcsBa06lYDWR5q8WVFv697p8TurGXm8bf9vrcX7MkoM+jDEoem/V4mXwtada2BgNoDOui3kSgaEQZ71dxe5AsHuaW2G13cFx9f+ml8fOmt+PjSCUXLbml2vJlPHZcolGq/7e/2s51rQauuNhBw1Uj+1o85CUTJ9RK7sCav5RgI3I/pNA9f3sbdJ3YoGqFqpvhAs/MsnQgnoYpGRDXf3bRzTWjV9QYCakZyv5qhv1C07I0tXudW0Vo+M+iRoPJ5rXDya/TDi9k/BEXLNlzB4/EuFwS3GLHv4U9b14ZWPWEgnJsUjZxVM8WnIUp68vBUNCL04WEGDWSyKekBCwEATYdJzKAF0W0gwrd4b+VV1opWvWQggL859qoZ+rv4+NJzvJyzGxyr+9biTvyPA3fpHt50os0M+pL4Xlj0HWVZE1p1Ok48KOy3R1rRiP3fZe5GfYZ3q29zD9JGOKadYQZtpdZ744a6j51oOjSw9NwFRSOm08oST7TnB2tCq24xEMoMeg4i7GUtf31t86f1CSozlgsJOaJo2Rv4Pc+LAro8PPBLzKCvCI6xXwR3OXy+Iz6+tCR5P8/0iFbxbjEQYOZT31YzRQsiTDrYjKaepzyDy5GVb1ZFI02rbXl44AuWTnaIJr3MoBcgchurFAi9oJXaVXMQM5/KMYNu5yG3naDhW07RshsUjegNhh277Ae7euXIywNnBt0mk+SOGVQ2DiJoekGrwa4yEFAzklfNPP6kC19/37D0XKXR37mbdLPl05GVD97rA3fhxxSKXL69olXXGQiouQxc4r7+biLHgkS0orP84BUtqwb8wLuBrtKqKw2kDo8c+xj39w/cUBQt2ywxt0y2vhFFI7/r9ANvF72iVVcbCKj1JszMp5408/gj9sQMAHBS8iF4odlDn5E8XzYaspUH7ketFj/oBa2srjeQOswoLVp67qXKWN+XzTwesPTlZd3DPL+SXwbTMLDfzOPHeL0KP2jpbahoxHXqm4DoBa3MrlnmdQMzSgvMKB239NxxcLVE2wa+KfTnzXyIeFx1U2qbbLn3pYex50RmHmM1Q2kricx8GiqIHvpZSyeHWrj+MmtEq4vdkheLVsb6Um1ox+8E3a5eGeu7rdmHECWvb+HBt/zAeX2WPzgdwwz6uJlP/bXXe9RZK1r1zBDLJ0R5fR29YZlR+q39dvQwhPBlkgkR/pzoGGbQM63cYwVrQqvIQFZg6aTloCMPD963FRhFIzJJ23xZ6VkrWkUGci2viQ5QNCJM5e/iwfv4wJfT1Ygqep239JxfE+Q1oVVkICuw9NwFXk7BiZtl3OglHrxp5vHNfq3d8x1qUQDTST/uBdaQVpGBrIIZ1HF1BtQElkqxueLBr/ZsvWD/3f7cc0OvaU/2epmcuMygx/y434rr9bxW0SrWKhQtO8h3cUVvmAfNfOpHLq57M98beNvSc0JXcDfEx5eKEvHhM5Wxvq1+3nctaBUZSOP2yKTwX7B0srnTJZnVTHEfT1rgiKWTuyw9J4qPcE2vaxUNsRpg6cvDAtHue7+ikRf9SoLgBTVTTEpmVD8XhHGANaBVZCAN4PljRUH9NhsbxTC0A0XLfgIifEomo7qlL5fiDoRe1yoykCaYefyIZGDWSLsfvJopblE0MuMQV7GSU5aeEy7JtkIvaxUZSBOYUTJl0+bzB/+LoBJEr0TNFO+FCOuSNcctM4+/EXSbelmryEAc4AmXZfcONioaOaNmioHUL4Eoud6eEEOEj8q6gjOD7mVGqS0BZb2qVWQgAsw8/qpEFr46/RDhQ/HxpV94yMnVEIiSUM0U96kZ+r/d1P9jBj3E89C2jV7UKlrmlaAFz9Nl13Jm0JcaZetwQtGyGyDC9hDhfg/3nTLz+IvMKAUVONaUXtMqMhBJeKoaXXKytxoGAJhhBl3O78WT112u54LiOWTtB3s9RPhmiLAmSszmwIyZx3e4/ZH5SS9pFRmIC/iDP9lioE+QdNw46vSKVtEcxAWWnnuD+wvJjrPbScHM41QYjAP0kFaRgbiEO9V92sWKTdDUa45/tRNzDid6QavIQDxgv3kqY31fZgYd7WCWR1BziyA3B11zvBW6XavIQFrAzKcmzTz+OADgaICphhph1Txk8ac7UVbZC92qVWQgLcKMklkZ67vPfjtxn6QgH/5lZlBi5vFHzHzqR2EbUonoRq2iVSyfUbTsIF+Tt7/PBh8uaT9YaunkKN8jCKSkWSfoBq0iAwkQRctuBAB8jpcru0ky66H9kM8DAM5YOqHMoK8HWSU2LIRVq8hA2ghEyX6IcJyn5bxuhZ+QPXl9FwBQaZYVfa0RFq16MrNiWOEZH893uh3dQFi0iibpEREORAYSEeFAZCAREQ5EBhIR4UBkIBERDkQGEhHhQLTM20bCsrbfDQwlkv1DCWetZgrRPkhX42V3WNHImtxJH0nXtNqaltdqa/qqVtMFQufK9PW5crSTHmoC9C86wgz6Si/5Yo2ks4NDCXzvcMJfraYL5Mhcmb4yV+4dX6ynAABOtSQuVsb6PtbGJrlG0bI3Khp5GACwK8Ce2WQGPWzp5ElmlDoZW9ESI+nsjVvTwWtVLdPDMwXy5FzZu1Yf8LdNnknw4PtmfIgZ9PuL89U/tbFNUkCUVAcPVJ6CCB/iQ4MgFz76YwNx3L9pdC9EeGFxvvLLMGrSjKFEUv3mZOWp4UR7tFKui+PEbaN7hxJ44d13Kr989x33WoXCQCDC9rBkh8Mh6xbnKyeYUfp9G5slRM0U71U0cgoAsLnNK4IwNhD/fP+m0S/Z429mlN5p4709sXuieO/WdGe0Uq6Lfz5xW02rubI7rcKyzCtTHGVLG9ohBUTJ/vj40ss8c59MWsuguEnRyFk1U9zXwTY4MpRI9j8ytfTycKLzWm1Nk7O7J9xpFQoDYQY9z/MhNYWvBHUcnhjtFwCAuzrdFk4MInywlmozGapVyaFE8vo9E+HSajiBDz4ytfTcUEJOq5AYyHI4pKg88XaIklJ5VoNC0bK38KyBogL0nSCtZujpTtbgWMlIOnvLnonwarVngp62ezfRgaFYxQK18XwWIkycjrF0ssPScy+1r1VXCThbYH1DrCcyK9rGsTXdmlbVMqVz5atazRRqWo2kr2o1lMA3Dyda0+rYfnzHXDnkmRXB1R+gqBfpyH5Ir+WbDRI+rPKk1XSBHJor05ecfrCNGElnN/D9FE9aHduPvzhXDnFu3jrx8aX/AwAYdDrG0slN7Ux1Yw9Z+JzDzVDBNoyHLT1X8uH+UNHIA7x3lZ7k8ozl32r1/m6whyx8zuFKq+kCeXim0LpWQ4kkHEmTB4YT7rSqlumh5/c31ipUBqJmit+DCH9HcJheGeu7rU1Nso32ZReTzAVm0DE3FV1lgSi5Xs3QH7pM67+rnSUQHplyp1W1TMee3++/VkOJ5Po9E+60qpbpruf3v1+rUEzS6zCD/lgiV5KmZopfaEd71EzxXhcP/IKlk81BGAeoLWRcrqXMXM5QKOVCARE+DFHSsUf2i90T7rSaLpDNQRiHzVy5dPn72/q+Wi3LazWcwIeHEu/XKlQ9CJB/Y18y8/iTQbpbQJRU1Qx9S7KrbuvEWM0Ut/CilDJtO1UZ6/tikO0ZSiTVPRPyWokmxn6ye6K4ZTghr9X3t12rVSh20ldxASK8V3DMh/o3jcaDXNEaPFB5iu/6imj7qtHC7KQ9V5uCCNtDiA8KDv/XfLf97aDa881Jea3aaRw2b56uaTWckNdqrnxVq1ANscDVssIy2cB3BbWDrGjZGyXHrxc6taRq68QMul0mfaeikfGg2jGSlteq3cZRZ6aQ+1W1LKfV1vS1WoWxB7GZhQhnRJ6esYG4BhH+zcLs5Ft+3lzN0Me5M50TC5ZObl+YnfwHP+/thoXZySpE+L3YQHyb4FAVAHCOGSUZlx5X7JmQ02q6QG5/83TntHrz9GR1KIHfU66T02quXNMqdD0IqL0dLzKDyrz1YhDhF9RM8W6/7s1LfO0SHccMOmbpuV/7dV+v8HT+VHQcd8X3lZG0nFbVMh2bKXReq+f3y2nFXfGXCaWBgNp+x2O2JUscWjeSr/lxX4jwvRIxCmeDWq3ygqWTvRLDhxEe4egbQwk5rYJarfLCdEFOKx7hGF4DYUZp0dKJPbaVGbPaRnJEzRSfatVfi0cCOmLp/r+NW8HSc7/l5QQcgQjv8fO+PBLQkelCuLSaKchpNZSoaRVaAwG1B/9rZlDRitYVIMIPqhn6c0XLbvJyP/6GFYV+nvVjh9xveI/r+GaECPvmVcvfsEKt/Ngh95vpglir4URNq1AbCKiNsY8xgz7q4pSbFI2cUTPFpyFKuvXL+ZzoAEsnh1xesy3Y8zYAgC447AZFy/pVdVao1XQhnFrNFOS0Gkln1dAbCKgZyXeZQY+4OMUecu1VM/R3aqb4Q9mxt0TMCWMG7Yg3sQyWToRDB78Cz3j2ESfYXDm8Wk0X5LTqCgMBtYf/DQDACy5PgxDhhxSNvBUfX5pWM8V9AmMRLVfOhKXMciOYQV8THQMRltnQk0GoVSf2PGSZK4u1GkrgzaGKQHPCnrRXxvr+Qs0UTftH7+ESIxBh+z+7p7hc212mF5lBTbuT4sc45mJiBhUuEQLuVTqUwEm+pm7OlWnJbQqaoURS5deAAIDZmUJOWCuD58865/TjhQi7WskaSWfXc11Wxnb8uUirallOq07B82c5ajWcwBu7xkDqmPnUt9VM8QLPIuK1/etrEYrY/sFIn8SDnRzhwUIvrnLbvzRdIDtmCrk3ZO6ze6J4gLtsX1mR25omp47tx38h8Va+IHi7S+Wf4v5VzwIARBtrDeHBTmFHqFXXDLFWYuZTz1j68hi43Wk6Hf2Z7B/V1jSZahDTMmj/3f5cdIPdE8U9wwk8vtI4ONv3TNCfiM63dHJBcIiwDTyuo+jVODiB+X75xXRBrFVXGgiordr8vZnHn+J1t9uFY1rLkTT5KwevUYV/7gjvOZqxfSSdFYWXil4aQq9W3s5WNxW7IV2qUKuuNRBQG3NbvO72iOSue0vUY8ibMZxwngCLPueZNkRDIE97PG4YTuCRVq9RjyHvdrraQOrw3uTTPJjoYgebIpofOH7O46JFbhA9k5u3G+gJAwF8lcvMpyYrY30fs3RyFwBgSsa92Q08+0hTqmU61crnHKfVHzZXpqKd6ZbT/lTLdKbVa/DsI2FHqFXPGMhKLD33SmWs7w5LJx9hBn2I75r68eZd7/ThTIH82P6n2cf8c0e471LDnqZapmSuXDKdzocIi0JsL4naMFMgP+IrPK3gqFUYGEqItepJA6lj6blLZj71ZGWs7zYzjwcsnWDuaHiU/5ArLg3neqcP7SHSsf34jmqZHlzxI1+w/58HCwl7tJlC7lfTheU5lb6iB7xYLdP08/tTPxCdL7HP4Whg/HssHNuPU7wX9oqjVmFgOCHWKnQx6Z0kPr70/5z2VphBD5r51Lfb2yp3xMeX/q9gKffFyljfTtnr8Y1CZeVwda5MrT0T9A9OWtkvhef3h1urR6bEWnXdRmHAnBfsQjuVaOg43I3GcZ9DZrNzJXw1qtGKlKNWPONhaOHeyI5aVcv0XE8PsTwgyux4g6Jl/aiEFAgQYWFkJTOo6DvKItRqJB1erYYSYq3myvRMZCArsHQi9B/iEYehhGc5cYIxg0q5u4iYLoi14hGHoYRnOXGCzZXpG5GBrIAZ9HWJoKP7O51lvhGKlr1VYvfbN2/kubJYq+EEvn8oET6tRtJyWs2VSwuRgayAe8OK3oyqopEH2tQkaRSNiFK22j2k23CBpnBvWKFWI+nwabU1LdZqulDTKjKQVVg6Efp2QYQJRMnQrPOrmeI9AIC2B3tNF8RaDScwGUqER6vdE3Ja1YO9IgNZBf8RifYKFJ5IuuPYhgoRflzi0ILfqVr5j0ioFU8k3XFsQx1OyGlVr4wbGcgqmFGy37SHJQ5N8+TWHUXNLMdsCBNUWzo56Pe958olVi3LacWTW3cUHt8i1Gq6cFWryEAaYOnkSfsf0XEQ4cNqptix4qJqpvg9AMB2iUNfCCrJ3UxBTqvhBD68e6JzWu2ekNdqZZK7sKYe7SiL81UGEV6IDcQ/Lzg0FhuIfwUAMNXuUsxqprgPIvwfJQ5llk52MqP0T0G04913qmwogReU68RaKdfVtHJbirlVdk8U9w0n5LSaLpCdc+WrWkU9SBMsnTwjGWOiKBqZUTPFZBuatQwvNCQ1ZGIGHecpgQJjpiCv1dY0mdk90T6t7J5jOCGnVbVMx3lKoCtEPUgTFuerfwIAnOE1AkUvkg/GBuJpiPB7C7OTvmzENcKekA8eqByPDcTvlzzl3OUTo1/l3yUw3n2nphWvESjUSrkunh5K4PfePB2cVvaE/JuTlePKdfJavfrE6Ff5d7lCZCAO2MMmyezpNuvs43hurTPMKP2jn21RM8V7FI38dwDAzZKnLJh5/Fm/29EMe9gkmT3dZp19HM+tdWau7G8bd08U79madqfVsf34s43aEXnzShAfX3rOTb07vsNcsHTyWKvDG0XL3so3AeXTrwCwyAx6l5lPvdrKvb3wyJQ3raYL5LHVwxu3jKSzt/JNQFdaVcv0ruf3N9YqMhAJIErG1Aw97VJ4wB++bumkwAz6Gt+pF6Jo2Y0Q4bu5b5Xr5AnMoA/xsghtZyiRjO2Z8K7VdIEU5sr0Nb5TL2Qknd04lMB3c98q11pVy/QhXhahIZGBSMLLQf/UfiYtXOYcL/Z5YVVGjX6I8CAPdtrsodb3FTppHHV42iBftOKpea7RaiiBB3mwU0taiYwDRAbiDm4kJ1rMFxUU9rDq4U4bRx1uJKHVqlqmD4uMA0STdHcszlf/yAx6PDYQ/3BsIP6ZTrdnBQvMoDvMfOq5TjekzrvvVP84V6bH/+V18Q8r14VLq2qZ7nh+v5xWUQ/iETVTvAcifFiyvHCQnDPzeEeQVWxbZfdE8Z7hRDi0OrYf71hZxVZEZCAtAFFyUM3QpyVdGPyG1TYByWPMECeD6DRDieTgnonOaVXbBCSPySTOWEk0xGqBxfnqe5ae+wnfULyhlQmjS16wdLLz8on7Xg56E9Av3n2n+t5MoabVcKK9Wk0XyM5Xn7jv5dWbgDJEPYiPKFr2Tl5NtuXUnQ1gfG/lYBiq67bKSDp7J68mG5hW0wVysNXqupGBBADfx9jDawKKkk07YT/oGUsnLzCDvuR3PEcY4PsYe3hNwJa1mi6QF+bK9KV6PEerRAYSMLwm4BaI8Ga+z7GBDy9WT1gv8eCjCjPoOWbQM8ygb4S5opXfjKRrWg0l8Ga+zyHUqlqm5+bK9Mxcmb4RREWr/x8AAP//mC6b1mgHT/IAAAAASUVORK5CYII=;" parent="1" vertex="1">
                    <mxGeometry x="510" y="114" width="62" height="62" as="geometry"/>
                </mxCell>
                <mxCell id="19" value="" style="sketch=0;html=1;dashed=0;whitespace=wrap;fillColor=#2875E2;strokeColor=#ffffff;points=[[0.005,0.63,0],[0.1,0.2,0],[0.9,0.2,0],[0.5,0,0],[0.995,0.63,0],[0.72,0.99,0],[0.5,1,0],[0.28,0.99,0]];shape=mxgraph.kubernetes.icon;prIcon=user;rounded=1;shadow=0;fontFamily=Courier New;fontColor=#000000;" parent="1" vertex="1">
                    <mxGeometry x="88" y="230" width="87" height="71.5" as="geometry"/>
                </mxCell>
                <mxCell id="20" value="&lt;h2&gt;&lt;font color=&quot;#000000&quot; face=&quot;Georgia&quot;&gt;&lt;b&gt;Commit&lt;/b&gt;&lt;/font&gt;&lt;/h2&gt;" style="text;html=1;align=center;verticalAlign=middle;resizable=0;points=[];autosize=1;strokeColor=none;fillColor=none;" parent="1" vertex="1">
                    <mxGeometry x="89.5" y="316" width="84" height="48" as="geometry"/>
                </mxCell>
                <mxCell id="23" value="" style="endArrow=classic;html=1;fontFamily=Georgia;fontColor=#000000;exitX=0.995;exitY=0.63;exitDx=0;exitDy=0;exitPerimeter=0;strokeColor=#000000;strokeWidth=5;rounded=1;" parent="1" source="19" target="16" edge="1">
                    <mxGeometry width="50" height="50" relative="1" as="geometry">
                        <mxPoint x="657" y="353" as="sourcePoint"/>
                        <mxPoint x="707" y="303" as="targetPoint"/>
                    </mxGeometry>
                </mxCell>
                <mxCell id="24" value="" style="endArrow=classic;html=1;rounded=1;fontFamily=Georgia;fontColor=#000000;strokeColor=#000000;strokeWidth=5;entryX=0;entryY=0.5;entryDx=0;entryDy=0;" parent="1" source="16" target="17" edge="1">
                    <mxGeometry width="50" height="50" relative="1" as="geometry">
                        <mxPoint x="657" y="353" as="sourcePoint"/>
                        <mxPoint x="707" y="303" as="targetPoint"/>
                    </mxGeometry>
                </mxCell>
                <mxCell id="25" value="" style="endArrow=classic;html=1;rounded=1;fontFamily=Georgia;fontColor=#000000;strokeColor=#000000;strokeWidth=5;entryX=0;entryY=0.091;entryDx=0;entryDy=0;entryPerimeter=0;" parent="1" source="16" target="14" edge="1">
                    <mxGeometry width="50" height="50" relative="1" as="geometry">
                        <mxPoint x="657" y="353" as="sourcePoint"/>
                        <mxPoint x="707" y="303" as="targetPoint"/>
                    </mxGeometry>
                </mxCell>
                <mxCell id="26" value="&lt;h2&gt;Github repo&lt;/h2&gt;" style="text;html=1;align=center;verticalAlign=middle;resizable=0;points=[];autosize=1;strokeColor=none;fillColor=none;fontFamily=Georgia;fontColor=#000000;" parent="1" vertex="1">
                    <mxGeometry x="267" y="318" width="122" height="48" as="geometry"/>
                </mxCell>
                <mxCell id="27" value="&lt;h2&gt;Github action&lt;/h2&gt;" style="text;html=1;align=center;verticalAlign=middle;resizable=0;points=[];autosize=1;strokeColor=none;fillColor=none;fontFamily=Georgia;fontColor=#000000;" parent="1" vertex="1">
                    <mxGeometry x="483" y="173" width="136" height="48" as="geometry"/>
                </mxCell>
                <mxCell id="29" value="&lt;h1&gt;&lt;u&gt;CI&lt;/u&gt;&lt;/h1&gt;" style="text;html=1;align=center;verticalAlign=middle;resizable=0;points=[];autosize=1;strokeColor=none;fillColor=none;fontFamily=Georgia;fontColor=#000000;" parent="1" vertex="1">
                    <mxGeometry x="531" y="38" width="38" height="50" as="geometry"/>
                </mxCell>
                <mxCell id="30" value="" style="aspect=fixed;html=1;points=[];align=center;image;fontSize=12;image=img/lib/azure2/app_services/App_Services.svg;fontFamily=Georgia;fontColor=#000000;strokeColor=#000000;fillColor=none;" parent="1" vertex="1">
                    <mxGeometry x="725" y="370.5" width="64" height="64" as="geometry"/>
                </mxCell>
                <mxCell id="32" value="&lt;h2&gt;&lt;span style=&quot;font-size: 16px ; text-align: left ; background-color: rgb(255 , 255 , 255)&quot;&gt;Azure Pipelines&lt;/span&gt;&lt;/h2&gt;" style="text;html=1;align=center;verticalAlign=middle;resizable=0;points=[];autosize=1;strokeColor=none;fillColor=none;fontFamily=Georgia;fontColor=#000000;" parent="1" vertex="1">
                    <mxGeometry x="475" y="426" width="139" height="49" as="geometry"/>
                </mxCell>
                <mxCell id="33" value="&lt;h2&gt;&lt;font color=&quot;#000000&quot; style=&quot;box-sizing: inherit ; font-size: 16px ; text-align: left ; background-color: rgb(255 , 255 , 255)&quot;&gt;Azure App Services&lt;/font&gt;&lt;br&gt;&lt;/h2&gt;" style="text;html=1;align=center;verticalAlign=middle;resizable=0;points=[];autosize=1;strokeColor=none;fillColor=none;fontFamily=Georgia;fontColor=#000000;" parent="1" vertex="1">
                    <mxGeometry x="672.5" y="426" width="169" height="49" as="geometry"/>
                </mxCell>
                <mxCell id="35" value="&lt;h1&gt;&lt;b&gt;CD&lt;/b&gt;&lt;/h1&gt;" style="text;html=1;align=center;verticalAlign=middle;resizable=0;points=[];autosize=1;strokeColor=none;fillColor=none;fontFamily=Georgia;fontColor=#000000;" parent="1" vertex="1">
                    <mxGeometry x="633.5" y="302" width="47" height="50" as="geometry"/>
                </mxCell>
                <mxCell id="36" value="" style="endArrow=classic;html=1;rounded=1;fontFamily=Georgia;fontColor=#000000;strokeColor=#000000;strokeWidth=5;" parent="1" source="14" target="30" edge="1">
                    <mxGeometry width="50" height="50" relative="1" as="geometry">
                        <mxPoint x="633.5" y="393" as="sourcePoint"/>
                        <mxPoint x="683.5" y="343" as="targetPoint"/>
                    </mxGeometry>
                </mxCell>
            </root>
        </mxGraphModel>
    </diagram>
</mxfile>